<?xml version="1.0" encoding="UTF-8"?>
<svg id="svg7" xmlns="http://www.w3.org/2000/svg" viewBox="0 0 900 600">
  <defs>
    <style>
      .cls-1 {
        fill: #fff;
      }

      .cls-2 {
        fill: #bc3452;
      }

      .cls-3 {
        fill: #213c66;
      }
    </style>
  </defs>
  <path id="path1" class="cls-2" d="M0,0h900v600H0V0Z"/>
  <path id="path2" class="cls-1" d="M0,0h900v300H0V0Z"/>
  <path id="path3" class="cls-3" d="M0,0h300v600H0V0Z"/>
  <g id="g7">
    <g id="b">
      <path id="a" class="cls-1" d="M150,187.5l-34.76,106.99,47.55,15.45"/>
      <g id="use3">
        <path id="a-2" data-name="a" class="cls-1" d="M150,187.5l34.76,106.99-47.55,15.45"/>
      </g>
    </g>
    <g id="use4">
      <g id="b-2" data-name="b">
        <path id="a-3" data-name="a" class="cls-1" d="M256.99,265.24h-112.5v50"/>
        <g id="use3-2" data-name="use3">
          <path id="a-4" data-name="a" class="cls-1" d="M256.99,265.24l-91.01,66.13-29.39-40.45"/>
        </g>
      </g>
    </g>
    <g id="use5">
      <g id="b-3" data-name="b">
        <path id="a-5" data-name="a" class="cls-1" d="M216.13,391.01l-34.76-106.99-47.55,15.45"/>
        <g id="use3-3" data-name="use3">
          <path id="a-6" data-name="a" class="cls-1" d="M216.13,391.01l-91.01-66.13,29.39-40.45"/>
        </g>
      </g>
    </g>
    <g id="use6">
      <g id="b-4" data-name="b">
        <path id="a-7" data-name="a" class="cls-1" d="M83.87,391.01l91.01-66.13-29.39-40.45"/>
        <g id="use3-4" data-name="use3">
          <path id="a-8" data-name="a" class="cls-1" d="M83.87,391.01l34.76-106.99,47.55,15.45"/>
        </g>
      </g>
    </g>
    <g id="use7">
      <g id="b-5" data-name="b">
        <path id="a-9" data-name="a" class="cls-1" d="M43.01,265.24l91.01,66.13,29.39-40.45"/>
        <g id="use3-5" data-name="use3">
          <path id="a-10" data-name="a" class="cls-1" d="M43.01,265.24h112.5v50"/>
        </g>
      </g>
    </g>
  </g>
</svg>