<?xml version="1.0" encoding="UTF-8"?>
<svg id="Layer_1" data-name="Layer 1" xmlns="http://www.w3.org/2000/svg" viewBox="0 0 107.83 108">
  <defs>
    <style>
      .cls-1 {
        fill: #fee600;
      }

      .cls-2 {
        fill: #010101;
      }

      .cls-3 {
        opacity: .99;
      }
    </style>
  </defs>
  <g id="layer1">
    <rect id="rect872" class="cls-1" width="107.83" height="108"/>
    <g id="g987" class="cls-3">
      <path id="path924-6" class="cls-2" d="M89.99,5.15c-14.03,13.08-27.82,30.72-33.18,49.99-3.17,11.37-.43,47.84-.43,47.84h0l-4.92-.12h0s2.74-36.47-.43-47.84C45.66,35.75,31.87,18.1,17.84,5.02l72.15.12Z"/>
      <path id="path943" class="cls-2" d="M90.68,97.37l-45.36-40.9C19.2,50.01,8.22,27.45,8.04,16.4c11.25,0,31.32,11.16,40.08,37.28l43.85,42.14c.92,1.13-.37,2.3-1.29,1.56Z"/>
      <path id="path982" class="cls-2" d="M17.15,97.37l45.36-40.9c26.12-6.46,37.1-29.02,37.28-40.08-11.25,0-31.32,11.16-40.08,37.28L15.86,95.81c-.92,1.13.37,2.3,1.29,1.56Z"/>
    </g>
  </g>
</svg>