<svg version="1.1" xmlns="http://www.w3.org/2000/svg" xmlns:xlink="http://www.w3.org/1999/xlink" width="43.98584" height="45.66666" viewBox="0,0,43.98584,45.66666"><g transform="translate(-218.5,-158.5)"><g data-paper-data="{&quot;isPaintingLayer&quot;:true}" fill-rule="nonzero" stroke-linecap="butt" stroke-linejoin="miter" stroke-miterlimit="10" stroke-dasharray="" stroke-dashoffset="0" style="mix-blend-mode: normal"><path d="M219.5,180c0,-11.32183 9.17817,-20.5 20.5,-20.5c11.32183,0 20.5,9.17817 20.5,20.5c0,1.97046 1.38866,6.80932 0.86973,8.61283c-2.46274,8.55908 -12.01835,11.88717 -21.36973,11.88717c-11.32183,0 -20.5,-9.17817 -20.5,-20.5z" fill="#ffffff" stroke="#000000" stroke-width="2"/><path d="M246.83334,196.33334c0,-3.40575 2.76091,-6.16667 6.16666,-6.16667c3.40575,0 6.16667,2.76092 6.16667,6.16667c0,3.40575 -2.76091,6.16666 -6.16667,6.16666c-3.40575,0 -6.16666,-2.76091 -6.16666,-6.16666z" fill="#ffffff" stroke="#000000" stroke-width="2"/><path d="M222.5,197c0,-3.40575 2.76091,-6.16667 6.16666,-6.16667c3.40575,0 6.16666,2.76092 6.16666,6.16667c0,3.40575 -2.76091,6.16666 -6.16666,6.16666c-3.40575,0 -6.16666,-2.76091 -6.16666,-6.16666z" fill="#ffffff" stroke="#000000" stroke-width="2"/><path d="M235.89976,181.73747c-0.09478,0.02071 -0.18353,0.03698 -0.26654,0.04909c0.12012,0.04406 0.24019,0.08802 0.35846,0.13475zM234.6964,180.57054c-0.00846,-0.00537 -0.01692,-0.01072 -0.02538,-0.01606c-0.01375,0.06828 -0.02577,0.13346 -0.03586,0.19506c0.01804,-0.05917 0.03864,-0.11901 0.06124,-0.17901zM232.80779,183.02536c-1.43277,-1.81339 0.07142,-5.54191 0.76971,-7.29912c0,0 0.16963,-0.42408 0.56017,-0.65701c-0.92469,-0.36183 -1.79575,-0.67937 -2.38193,-0.96963c-0.6279,1.77359 -1.57359,3.22457 -2.97343,4.37604c0.20578,0.33937 0.20578,0.71483 0.20578,0.71483l-0.10773,0.49233c0.36046,0.81104 0.71846,1.62317 1.07297,2.43682c0.50733,0.6458 0.80928,1.55893 1.54884,1.916c0.62894,0.30366 1.39467,-0.09707 2.09307,-0.09515c0.32308,0.00089 0.6406,-0.01584 0.94972,-0.04998c-0.61893,-0.2467 -1.33621,-0.35765 -1.73717,-0.86513zM232.77372,171.81207c2.31563,1.29848 6.77499,2.28824 7.95549,4.99534c2.41199,5.53113 -1.91343,9.62006 -7.13397,9.63307c-0.4618,0.00115 -2.79901,0.0215 -3.04978,-0.09515c-0.93519,-0.43502 -2.118,-2.13942 -2.73687,-2.94115c-0.40678,-0.90088 -0.8113,-1.80277 -1.21275,-2.70603l-0.05831,-0.81592c-0.48827,0.23233 -1.01263,0.4445 -1.57557,0.63696c0,0 -1.18585,0.39529 -1.58113,-0.79056c-0.39529,-1.18586 0.79056,-1.58114 0.79056,-1.58114c4.13696,-1.33686 5.43459,-3.96961 5.95494,-8.16919l0.2545,-0.84024c0,0 0.39528,-1.18586 1.58113,-0.79057c1.18586,0.39529 0.79057,1.58114 0.79057,1.58114l-0.14551,0.35976c-0.06033,0.47872 -0.1316,0.94142 -0.21523,1.38833c0.22636,0.04894 0.38193,0.13536 0.38193,0.13536z" fill="#000000" stroke="none" stroke-width="0.5"/><path d="M251.76664,181.52974c0.03453,-0.0337 0.0719,-0.06654 0.11221,-0.09758c-0.08901,-0.01028 -0.17517,-0.02991 -0.25748,-0.05788c0.04731,0.05157 0.09573,0.10338 0.14528,0.15546zM247.79636,181.09761c-1.03889,-1.99928 -0.86824,-4.03664 -0.95733,-6.15027c-0.03005,0.03785 -0.05903,0.07679 -0.08688,0.11688c-0.93663,1.34839 -1.73754,3.37157 -0.80201,4.90727c0.45348,0.74441 1.28831,1.36177 2.26027,1.77134c-0.15833,-0.20777 -0.29834,-0.42254 -0.41405,-0.64522zM256.67262,180.03307l-0.32799,1.43277c-4.09574,7.93874 -17.84424,0.34638 -11.62058,-7.8634c1.08892,-1.43643 2.51019,-1.85751 4.07781,-2.55423c0,0 0.10972,-0.04877 0.27628,-0.08207c-0.12265,-0.29785 -0.24163,-0.59281 -0.35777,-0.88286l-0.1003,-0.19093c0,0 -0.55901,-1.11803 0.55902,-1.67705c1.11803,-0.55901 1.67705,0.55901 1.67705,0.55901l0.18542,0.38049c1.08855,2.72408 2.88367,7.84284 6.38114,7.93366c0,0 1.24487,0.11317 1.1317,1.35804c-0.11317,1.24487 -1.35804,1.1317 -1.35804,1.1317c-0.17662,-0.02272 -0.34961,-0.05136 -0.51909,-0.08566c0.04989,0.29514 -0.00464,0.54053 -0.00464,0.54053z" fill="#000000" stroke="none" stroke-width="0.5"/><path d="M235.04864,193.17807c-0.55901,-1.11803 0.55902,-1.67705 0.55902,-1.67705l0.18972,0.00919c3.1317,-3.47174 7.27537,-2.60219 11.50733,-2.13351c0,0 1.24235,0.13803 1.10431,1.38039c-0.13804,1.24236 -1.38039,1.10432 -1.38039,1.10432c-3.1641,-0.35278 -7.074,-1.42044 -9.34981,1.29506l-0.95313,0.58061c0,0 -1.11804,0.55902 -1.67705,-0.55901z" fill="#000000" stroke="none" stroke-width="0.5"/></g></g></svg>