<?xml version="1.0" encoding="UTF-8" standalone="no"?>
<!-- Generator: Adobe Illustrator 15.1.0, SVG Export Plug-In . SVG Version: 6.00 Build 0)  -->

<svg
   version="1.1"
   id="레이어_1"
   x="0px"
   y="0px"
   width="800.39001"
   height="566.92999"
   viewBox="0 0 800.39 566.93"
   enable-background="new 0 0 850.39 566.93"
   xml:space="preserve"
   sodipodi:docname="korean empire.svg"
   inkscape:version="1.4 (86a8ad7, 2024-10-11)"
   xmlns:inkscape="http://www.inkscape.org/namespaces/inkscape"
   xmlns:sodipodi="http://sodipodi.sourceforge.net/DTD/sodipodi-0.dtd"
   xmlns="http://www.w3.org/2000/svg"
   xmlns:svg="http://www.w3.org/2000/svg"><defs
   id="defs15" /><sodipodi:namedview
   id="namedview15"
   pagecolor="#ffffff"
   bordercolor="#000000"
   borderopacity="0.25"
   inkscape:showpageshadow="2"
   inkscape:pageopacity="0.0"
   inkscape:pagecheckerboard="0"
   inkscape:deskcolor="#d1d1d1"
   inkscape:zoom="0.71172809"
   inkscape:cx="201.62194"
   inkscape:cy="314.02442"
   inkscape:window-width="1920"
   inkscape:window-height="1046"
   inkscape:window-x="-11"
   inkscape:window-y="-11"
   inkscape:window-maximized="1"
   inkscape:current-layer="레이어_1" />
<rect
   fill="#ffffff"
   width="800"
   height="566.92999"
   id="rect1"
   x="0"
   y="0"
   style="stroke-width:0.96992" />
<circle
   fill="#d9241d"
   cx="400.19437"
   cy="283.46585"
   id="circle1"
   style="stroke-width:1.05876"
   r="152.66637" />
<g
   id="g3"
   transform="matrix(1.0587567,0,0,1.0587567,-49.983706,-16.653561)">
	<g
   id="g2">
		<path
   fill="#29176e"
   d="m 386.514,144.526 c 1.433,-0.344 3.609,-0.9 6.389,-1.621 -2.149,0.491 -4.278,1.035 -6.389,1.621 z"
   id="path1" />
		<path
   fill="#29176e"
   d="m 551.869,313.938 c 0.975,-31.164 -13.967,-59.933 -17.221,-66.058 -28.369,-53.408 -95.602,-55.535 -99.895,-55.406 -39.959,1.198 -59.443,29.433 -59.139,52.346 0.311,23.492 18.216,36.588 34.764,36.762 47.549,0.496 62.334,17.21 62.334,45.552 0,15.584 -13.926,47.949 -59.937,47.949 -61.137,0 -111.484,-48.35 -111.484,-119.675 0,-27.558 7.61,-52.758 20.192,-72.11 C 296.422,209.238 281,244.549 281,283.466 c 0,79.635 64.558,144.194 144.194,144.194 44.842,0 84.902,-20.471 111.35,-52.576 12.671,-27.033 14.526,-35.574 15.325,-61.146 z"
   id="path2" />
	</g>
</g>
<rect
   x="193.14111"
   y="-98.365349"
   transform="rotate(40.526719)"
   fill="#29176e"
   width="20.853188"
   height="106.34004"
   id="rect3"
   style="stroke-width:1.05875" />
<rect
   x="-7.9735274"
   y="260.22116"
   transform="rotate(-49.473281)"
   fill="#29176e"
   width="106.34004"
   height="20.852129"
   id="rect4"
   style="stroke-width:1.05875" />
<rect
   x="226.20081"
   y="-98.368164"
   transform="rotate(40.526719)"
   fill="#29176e"
   width="21.82724"
   height="106.34004"
   id="rect5"
   style="stroke-width:1.05875" />
<rect
   x="-415.23962"
   y="-528.07019"
   transform="rotate(139.47328)"
   fill="#29176e"
   width="20.853188"
   height="106.34004"
   id="rect6"
   style="stroke-width:1.05875" />
<rect
   x="-528.08209"
   y="327.31995"
   transform="rotate(-130.52672)"
   fill="#29176e"
   width="106.3411"
   height="20.852129"
   id="rect7"
   style="stroke-width:1.05875" />
<g
   id="g8"
   transform="matrix(1.0587567,0,0,1.0587567,-49.983706,-16.653561)">
	<polygon
   fill="#29176e"
   points="593.841,131.367 609.528,117.992 580.415,83.941 564.747,97.337 "
   id="polygon7" />
	<polygon
   fill="#29176e"
   points="645.685,160.283 616.589,126.251 600.901,139.626 630.015,173.68 "
   id="polygon8" />
</g>
<g
   id="g9"
   transform="matrix(1.0587567,0,0,1.0587567,-49.983706,-16.653561)">
	<polygon
   fill="#29176e"
   points="577.19,406.99 592.19,419.752 621.253,385.759 606.282,372.961 "
   id="polygon9" />
	
		<rect
   x="540.65198"
   y="428.823"
   transform="matrix(0.6498,-0.7601,0.7601,0.6498,-136.2559,581.5839)"
   fill="#29176e"
   width="44.817001"
   height="19.694"
   id="rect9" />
</g>
<g
   id="g11"
   transform="matrix(1.0587567,0,0,1.0587567,-49.983706,-16.653561)">
	<polygon
   fill="#29176e"
   points="210.043,460.938 225.03,448.159 195.944,414.138 180.974,426.936 "
   id="polygon10" />
	<polygon
   fill="#29176e"
   points="232.091,456.418 217.104,469.196 246.242,503.278 261.212,490.48 "
   id="polygon11" />
</g>
<rect
   x="-142.20338"
   y="422.95328"
   transform="rotate(-40.526719)"
   fill="#29176e"
   width="21.82724"
   height="106.3411"
   id="rect11"
   style="stroke-width:1.05875" />
<g
   id="g13"
   transform="matrix(1.0587567,0,0,1.0587567,-49.983706,-16.653561)">
	<polygon
   fill="#29176e"
   points="258.263,419.823 273.249,407.046 244.108,372.961 229.139,385.759 "
   id="polygon12" />
	<polygon
   fill="#29176e"
   points="309.376,449.303 280.31,415.305 265.323,428.082 294.407,462.101 "
   id="polygon13" />
</g>
<g
   id="g14"
   transform="matrix(1.0587567,0,0,1.0587567,-49.983706,-16.653561)">
	
		<rect
   x="564.73499"
   y="448.95099"
   transform="matrix(0.6498,-0.7601,0.7601,0.6498,-143.4744,607.0876)"
   fill="#29176e"
   width="44.816002"
   height="20.614"
   id="rect13" />
	<polygon
   fill="#29176e"
   points="600.97,427.223 616.671,440.582 645.685,406.646 630.015,393.25 "
   id="polygon14" />
</g>
<g
   id="g15"
   transform="matrix(1.0587567,0,0,1.0587567,-49.983706,-16.653561)">
	<polygon
   fill="#29176e"
   points="625.452,448.053 640.452,460.815 669.417,426.936 654.446,414.138 "
   id="polygon15" />
	
		<rect
   x="588.81702"
   y="469.99899"
   transform="matrix(0.6498,-0.7601,0.7601,0.6498,-150.6883,632.6127)"
   fill="#29176e"
   width="44.817001"
   height="19.695"
   id="rect15" />
</g>
</svg>
